<svg width="48" height="48" viewBox="0 0 48 48" fill="none" xmlns="http://www.w3.org/2000/svg">
    <path 
        d="M24 32.2499C28.5563 32.2499 32.2499 28.5563 32.2499 24C32.2499 19.4436 28.5563 15.75 24 15.75C19.4436 15.75 15.75 19.4436 15.75 24C15.75 28.5563 19.4436 32.2499 24 32.2499Z" 
        stroke="#000" 
        stroke-width="2"
        strokeLinecap="round" 
        strokeLinejoin="round" />
    <path 
        d="M34.4366 12.2038C34.917 12.6291 35.3711 13.0832 35.7964 13.5635L40.9193 14.2951C41.7501 15.7417 42.3906 17.2895 42.825 18.9002L39.7211 23.0387C39.7211 23.0387 39.7601 24.321 39.7212 24.9614L42.8264 29.1011C42.3909 30.7115 41.7493 32.2589 40.9176 33.705L35.7964 34.4365C35.7964 34.4365 34.9172 35.3709 34.4369 35.7962L33.7054 40.9191C32.2587 41.7498 30.7109 42.3904 29.1002 42.8248L24.962 39.7209C24.3216 39.7598 23.6794 39.7599 23.039 39.7209L18.8993 42.8261C17.2889 42.3906 15.7415 41.7491 14.2954 40.9173L13.564 35.7964C13.0837 35.3711 12.6296 34.917 12.2043 34.4367L7.08134 33.7051C6.25058 32.2585 5.61006 30.7106 5.17566 29.1L8.27962 24.9615C8.27962 24.9615 8.24057 23.6791 8.27949 23.0388L5.17432 18.8991C5.6098 17.2887 6.25137 15.7413 7.08312 14.2952L12.204 13.5638C12.6293 13.0834 13.0834 12.6293 13.5638 12.204L14.2953 7.08111C15.7419 6.25034 17.2898 5.60982 18.9005 5.17542L23.0386 8.27926C23.679 8.24033 24.3212 8.24033 24.9616 8.27925L29.1014 5.17407C30.7117 5.60956 32.2591 6.25113 33.7052 7.08287L34.4366 12.2038Z" 
        stroke="#000" 
        stroke-width="2" 
        strokeLinecap="round" 
        strokeLinejoin="round" />
</svg>